<svg id="Capa_1" enable-background="new 0 0 512 512" height="512" viewBox="0 0 512 512" width="512" xmlns="http://www.w3.org/2000/svg"><g><path d="m254.121 291.382h-228.943c-11.495 0-20.813-9.318-20.813-20.813v-249.756c-.001-11.495 9.318-20.813 20.813-20.813h228.943c11.495 0 20.813 9.318 20.813 20.813v249.756c0 11.495-9.319 20.813-20.813 20.813z" fill="#dd636e"/><path d="m254.121 0h-24.084c11.495 0 20.813 9.318 20.813 20.813v152.761c0 4.614-3.044 8.661-7.466 9.975-50.444 14.992-89.699 56.233-101.827 107.833h112.564c11.495 0 20.813-9.318 20.813-20.813v-249.756c0-11.495-9.319-20.813-20.813-20.813z" fill="#da4a54"/><path d="m216.72 124.878h-50.077c-3.414 0-6.181-2.767-6.181-6.181v-50.077c0-3.414-2.767-6.181-6.181-6.181h-29.264c-3.414 0-6.181 2.767-6.181 6.181v50.077c0 3.414-2.767 6.181-6.181 6.181h-50.077c-3.414 0-6.181 2.767-6.181 6.181v29.264c0 3.414 2.767 6.181 6.181 6.181h50.077c3.414 0 6.181 2.767 6.181 6.181v50.077c0 3.414 2.767 6.181 6.181 6.181h29.264c3.414 0 6.181-2.767 6.181-6.181v-50.077c0-3.414 2.767-6.181 6.181-6.181h50.077c3.414 0 6.181-2.767 6.181-6.181v-29.264c0-3.414-2.767-6.181-6.181-6.181z" fill="#f4fbff"/><g><path d="m412.058 422.263-29.582 29.582c-4.023 4.023-10.546 4.023-14.569 0l-19.206-19.206 44.151-44.151 19.206 19.206c4.024 4.023 4.024 10.546 0 14.569z" fill="#2b4d66"/><path d="m391.781 431.568h37.463v37.463h-37.463z" fill="#4a80aa" transform="matrix(.707 -.707 .707 .707 -198.173 422.166)"/><path d="m501.442 512-69.113-.001c-2.732 0-5.352-1.085-7.284-3.017l-16.077-16.077c-4.023-4.023-4.023-10.546 0-14.569l29.582-29.582c4.023-4.023 10.546-4.023 14.569 0l52.695 52.695c3.893 3.893 1.135 10.551-4.372 10.551z" fill="#407093"/><path d="m438.549 448.754-7.432 7.432 55.813 55.814h14.512c5.507 0 8.265-6.658 4.371-10.552l-52.695-52.694c-4.023-4.023-10.546-4.023-14.569 0z" fill="#365e7d"/><circle cx="285.418" cy="325.205" fill="#407093" r="124.878"/><path d="m360.937 225.751c15.95 20.973 25.424 47.138 25.424 75.519 0 68.968-55.91 124.878-124.878 124.878-28.381 0-54.547-9.474-75.519-25.424 22.809 29.992 58.867 49.359 99.454 49.359 68.968 0 124.878-55.91 124.878-124.878 0-40.587-19.367-76.645-49.359-99.454z" fill="#365e7d"/><circle cx="285.418" cy="325.205" fill="#e4f6ff" r="91.577"/><path d="m340.72 252.211c11.66 15.367 18.584 34.525 18.584 55.302 0 50.577-41.001 91.577-91.577 91.577-20.777 0-39.935-6.924-55.302-18.584 16.723 22.039 43.194 36.275 72.993 36.275 50.577 0 91.577-41.001 91.577-91.577 0-29.799-14.236-56.269-36.275-72.993z" fill="#d3effb"/></g></g></svg>