<svg id="Capa_1" enable-background="new 0 0 512 512" height="512" viewBox="0 0 512 512" width="512" xmlns="http://www.w3.org/2000/svg"><g><path d="m437.837 20.604v470.793c0 11.383-9.23 20.604-20.604 20.604h-322.467c-11.383 0-20.604-9.22-20.604-20.604v-470.793c.001-11.384 9.221-20.604 20.604-20.604h87.905v28.062c0 5.697 4.615 10.302 10.302 10.302h126.053c5.687 0 10.302-4.605 10.302-10.302v-28.062h87.905c11.374 0 20.604 9.22 20.604 20.604z" fill="#f5a871"/><path d="m437.837 20.604v470.793c0 11.383-9.23 20.604-20.604 20.604h-38.972c11.383 0 20.604-9.22 20.604-20.604v-470.793c0-11.384-9.22-20.604-20.604-20.604h38.972c11.373 0 20.604 9.22 20.604 20.604z" fill="#e89a5e"/><g><path d="m398.865 46.987v412.763c0 5.697-4.605 10.302-10.302 10.302h-265.127c-5.697 0-10.302-4.605-10.302-10.302v-412.763c0-5.687 4.605-10.302 10.302-10.302h265.127c5.697 0 10.302 4.615 10.302 10.302z" fill="#eff5f6"/><g fill="#cbe5e7"><path d="m339.63 36.685v26.012c0 5.697-4.615 10.302-10.302 10.302h-146.657c-5.687 0-10.302-4.605-10.302-10.302v-26.012z"/><path d="m398.865 46.987v412.763c0 5.697-4.605 10.302-10.302 10.302h-33.965c5.687 0 10.302-4.605 10.302-10.302v-412.763c0-5.687-4.615-10.302-10.302-10.302h33.965c5.697 0 10.302 4.615 10.302 10.302z"/></g></g><path d="m329.329 48.671h-146.659c-5.69 0-10.302-4.612-10.302-10.302v-38.369h167.262v38.369c.001 5.69-4.612 10.302-10.301 10.302z" fill="#557983"/><path d="m339.63 0v38.364c0 5.697-4.615 10.302-10.302 10.302h-28.711c5.687 0 10.302-4.605 10.302-10.302v-38.364z" fill="#3f5959"/><g><g id="XMLID_150_"><path d="m227.394 32.062h-.107c-4.267 0-7.726-3.459-7.726-7.726s3.459-7.726 7.726-7.726h.107c4.267 0 7.726 3.459 7.726 7.726s-3.459 7.726-7.726 7.726z" fill="#3f5959"/></g><g id="XMLID_151_"><path d="m284.711 32.062h-.107c-4.267 0-7.726-3.459-7.726-7.726s3.459-7.726 7.726-7.726h.107c4.267 0 7.726 3.459 7.726 7.726s-3.459 7.726-7.726 7.726z" fill="#3f5959"/></g></g><g><g><g><path d="m202.533 403.114c-1.877 0-3.747-.681-5.218-2.028l-21.114-19.33-15.955 9.688c-3.648 2.215-8.4 1.053-10.614-2.594-2.215-3.647-1.053-8.399 2.594-10.614l20.908-12.695c2.937-1.783 6.696-1.413 9.227.905l20.581 18.843 91.178-70.769c3.364-2.61 8.205-2.008 10.826 1.347l14.304 18.31 41.103-26.749c3.574-2.327 8.363-1.316 10.69 2.262 2.327 3.576 1.315 8.363-2.262 10.69l-47.043 30.615c-3.36 2.188-7.835 1.44-10.303-1.719l-13.926-17.825-90.241 70.042c-1.398 1.084-3.069 1.621-4.735 1.621z" fill="#24d1f8"/></g><g><path d="m364.567 438.057h-213.794c-4.267 0-7.726-3.459-7.726-7.726s3.459-7.726 7.726-7.726h213.794c4.267 0 7.726 3.459 7.726 7.726.001 4.267-3.458 7.726-7.726 7.726z" fill="#90bac4"/></g></g><g><path d="m165.943 336.91h-9.707c-4.267 0-7.726-3.459-7.726-7.726s3.459-7.726 7.726-7.726h9.707c4.267 0 7.726 3.459 7.726 7.726.001 4.267-3.459 7.726-7.726 7.726z" fill="#1785f8"/></g><g><path d="m165.943 311.8h-9.707c-4.267 0-7.726-3.459-7.726-7.726s3.459-7.726 7.726-7.726h9.707c4.267 0 7.726 3.459 7.726 7.726s-3.459 7.726-7.726 7.726z" fill="#1785f8"/></g><g><path d="m364.567 273.689h-213.794c-4.267 0-7.726-3.459-7.726-7.726s3.459-7.726 7.726-7.726h213.794c4.267 0 7.726 3.459 7.726 7.726.001 4.267-3.458 7.726-7.726 7.726z" fill="#90bac4"/></g></g><g><g><g><path d="m256.885 127.119c-4.267 0-7.726-3.459-7.726-7.726v-4.514c0-4.267 3.459-7.726 7.726-7.726s7.726 3.459 7.726 7.726v4.514c.001 4.266-3.459 7.726-7.726 7.726z" fill="#1785f8"/></g><g><path d="m282.065 127.119c-4.267 0-7.726-3.459-7.726-7.726v-4.514c0-4.267 3.459-7.726 7.726-7.726s7.726 3.459 7.726 7.726v4.514c0 4.266-3.459 7.726-7.726 7.726z" fill="#1785f8"/></g><g><path d="m307.244 127.119c-4.267 0-7.726-3.459-7.726-7.726v-4.514c0-4.267 3.459-7.726 7.726-7.726s7.726 3.459 7.726 7.726v4.514c0 4.266-3.459 7.726-7.726 7.726z" fill="#1785f8"/></g><g><path d="m332.424 127.119c-4.267 0-7.726-3.459-7.726-7.726v-4.514c0-4.267 3.459-7.726 7.726-7.726s7.726 3.459 7.726 7.726v4.514c0 4.266-3.459 7.726-7.726 7.726z" fill="#1785f8"/></g><g><path d="m357.603 127.119c-4.267 0-7.726-3.459-7.726-7.726v-4.514c0-4.267 3.459-7.726 7.726-7.726s7.726 3.459 7.726 7.726v4.514c0 4.266-3.459 7.726-7.726 7.726z" fill="#1785f8"/></g></g><g><path d="m357.603 157.612h-64.377c-4.267 0-7.726-3.459-7.726-7.726s3.459-7.726 7.726-7.726h64.377c4.267 0 7.726 3.459 7.726 7.726s-3.459 7.726-7.726 7.726z" fill="#90bac4"/></g><g><path d="m357.603 202.912h-119.575c-4.267 0-7.726-3.459-7.726-7.726s3.459-7.726 7.726-7.726h119.575c4.267 0 7.726 3.459 7.726 7.726s-3.459 7.726-7.726 7.726z" fill="#90bac4"/></g><g><path d="m357.603 230.292h-119.575c-4.267 0-7.726-3.459-7.726-7.726s3.459-7.726 7.726-7.726h119.575c4.267 0 7.726 3.459 7.726 7.726 0 4.266-3.459 7.726-7.726 7.726z" fill="#90bac4"/></g></g><g><path d="m191.234 146.241h-24.697c-5.69 0-10.302-4.612-10.302-10.302v-24.697c0-5.69 4.612-10.302 10.302-10.302h24.697c5.69 0 10.302 4.612 10.302 10.302v24.697c0 5.689-4.612 10.302-10.302 10.302z" fill="#24d1f8"/><path d="m201.534 111.239v24.704c0 5.687-4.605 10.302-10.302 10.302h-22.643c5.687 0 10.302-4.615 10.302-10.302v-24.704c0-5.687-4.615-10.302-10.302-10.302h22.643c5.697 0 10.302 4.615 10.302 10.302z" fill="#21c1f8"/></g><g><path d="m191.234 222.565h-24.697c-5.69 0-10.302-4.612-10.302-10.302v-24.697c0-5.69 4.612-10.302 10.302-10.302h24.697c5.69 0 10.302 4.612 10.302 10.302v24.697c0 5.69-4.612 10.302-10.302 10.302z" fill="#fb4a59"/><path d="m201.534 187.565v24.693c0 5.697-4.605 10.302-10.302 10.302h-22.643c5.687 0 10.302-4.605 10.302-10.302v-24.693c0-5.687-4.615-10.302-10.302-10.302h22.643c5.697 0 10.302 4.615 10.302 10.302z" fill="#f82f40"/></g><g><path d="m250.072 403.114c-1.631 0-3.262-.515-4.636-1.545l-45.798-34.349c-3.413-2.56-4.106-7.403-1.545-10.817 2.56-3.413 7.403-4.104 10.817-1.545l41.132 30.849 32.691-24.846c2.037-1.549 4.709-1.988 7.132-1.174l77.16 25.886c4.046 1.357 6.225 5.737 4.868 9.782-1.357 4.046-5.737 6.227-9.782 4.868l-73.283-24.585-34.079 25.901c-1.382 1.05-3.03 1.575-4.677 1.575z" fill="#fb4a59"/></g></g></svg>